/* XPM */
static char *asrc_logo[] = {
/* columns rows colors chars-per-pixel */
"100 10 3 1 ",
"  c None",
". c #5C5D61",
"X c #2E56A5",
/* pixels */
" . ..    .  .  .  . ..   .  . . .. .     .   .. .  .  .  .  .. .      .  .  .  . .  ..              ",
"..     . .  ..    .             .  ..    .   .. .     .  .. ..    ..     .  ..   .  ..              ",
"                                                                         .                    ..    ",
"                                                                                              ...   ",
"                                                   X        X   X                    X              ",
"                                                     XXX   XX XXXXXXXX  X    X X   X X      ... ..  ",
"                                                          X                                 ... ..  ",
"                                                                                                .   ",
"                                                                                                    ",
"                                                                                                    "
};
