/* XPM */
static char *GHAASasrc[] = {
/* columns rows colors chars-per-pixel */
"96 100 2 1 ",
"  c None",
". c #5C5D61",
/* pixels */
"                                                                                                ",
"                                                                                                ",
"                                                                                                ",
"                                                                                                ",
"                                                  .                                             ",
"                                                  .                                             ",
"                                                  .  .                                          ",
"                                               .  .  .                                          ",
"                                          .     ...  .                                          ",
"                                            .     .  .                                          ",
"                                       .      .   .  .                                          ",
"                                         .     ....  .   .                                      ",
"                                          ..     ..  .   .  .                                   ",
"                                      .     ..    .  ..  .  .                                   ",
"                                 .     ..     ... .  ..  .  .                                   ",
"                                  ..     ..     ...  ..  .  .         .                         ",
"                                    ..     ..    ... ..  .  .         .  .                      ",
"                               ..     ..    ...   .. ..  .  .  .      .  .                      ",
"                           .     ..     ..    ...... ..  .  .  .   .  .  .                      ",
"                            ..     ..    ....   .... ..  .  .  .   .  .  .                      ",
"                        .     ..     ..    ....   .. ..  .  .. .   .  .  .                      ",
"                         ..     ..    ...    .... .. ..  .  .. ..  .  .  .  .                   ",
"                           ..     ..    ...    ..... ..  .  .. ..  .  .  .  .   .               ",
"                      ..     ..    ...    ....   ... ..  .. .. ..  .  .  .  .   .               ",
"                  .     ..     ..    ....   ....  .. ..  .. .. ..  .  .  .  .   .  .            ",
"                   ..     ..    ....   ....   ...... ..  .. .. ..  .  .  .. ..  .  .            ",
"              ..     ..    ...    ...    ....  ..... ... .. .. ..  .  .  .. ..  .  .            ",
"                ..     ..    ...    ....  .....  ... ... .. .. ..  .  .  .. ..  .               ",
"                  ..    ...    ...    ....  ..... .. ... .. .. ..  .  .. .. ..  .               ",
"                   ...    ...    ....  .....  .......... .. .. ..  .  .. .. ..  .               ",
"                     ...    ....   ....  .....  ........ .. .. ..  .  .. .. ..                  ",
"                       ...    ....  .....  ..... ....... .. .. ..  .. .. ..                     ",
"                         ...   .....  .....  ........... .. .. ..  .. .. ..                     ",
"                           ....  .....  ..... .......... .. .. ..  .. ..                        ",
"           .                .....  .....  ................. .. ... .. ..                .       ",
"         ..                   .....  ...................... .. ... ..                 ..        ",
"        .    ..                 .....  ....................... ... .                ..          ",
"            ..                    ..... ..........................                ...    .      ",
"           .    ...                 .............................               ...    ..       ",
"         .    ...   ..               ..........................                ...   ..         ",
"             ..    ...                 ......................                ...   ...          ",
"           ..    ...   ..                ...................               ....   ..    ..      ",
"          .     ..   ....                  ...............               ....   ...    .        ",
"         .    ..    ...  ....               ............                ...   ...    ..         ",
"       .     ..   ...   .... ..               ........                ....  ....   ..           ",
"           ..    ..   ....  ....                .....               ....   ...   ...    .       ",
"          .    ...   ...  ..... ..                .               .....  ....   ..    ..        ",
"              ..   ....  ....  ....                              ....  ....   ...   ..          ",
"            ..    ...  ....  .........                         ..... .....  ...    ..    .      ",
"           .    ...   ...   ...........                      ...........  ....   ..    ..       ",
"         ..    ..   ....  .... ..........                  ............ ....   ...    .         ",
"             ...   ...   .... .............               ...........  ....  ...    ..          ",
"            ..   ...   ....  ................           ............ ....  ....   ..     .      ",
"          ..    ..    ...  ...................        ............ .....  ...   ...    .        ",
"         .    ...   ...   .... ...............       .................  ....   ..    ..         ",
"             ..    ...  ....  ................       ................ ....   ...   ..     .     ",
"           ..    ...   ...  ..................       .............. .....  ...    ..    ..      ",
"          .     ..   ....  .... ..............       ..................  ....   ..    ..        ",
"         .    ..    ...  ....  ...............       .................  ...   ...    ..         ",
"             ..   ...   .... .................       ...............  ....  ...    ..           ",
"           ..    ..   ....  ..................       .............. ....   ...   ...    .       ",
"          .    ...   ...   ...................       ..................  ...   ...    ..        ",
"              ..   ...   .... ................       ................. ....   ...   ..          ",
"            ..    ...  ...... ................       ....................   ...    ..    .      ",
"           .    ...   .... .. ......... ......        ............  ..... ....   ..    ..       ",
"         .     ..   ...... .. ......... .. ...       ........  .....  ......   ...    .         ",
"             ..    .... .. .. ... ..... .. ...       ..........  ....   .... ...    ..          ",
"            .    ... .  .. .. ... .. .. .. ...       ..... ......  ....   .....   ..     .      ",
"          ..    ...  .  .. .. ... .. .. .. ...        ......  ....   ....   .......    ..       ",
"         .    ... .  .  .. ..  .. .. .. .. ...       ..  .....  ....   ....   ....   ..         ",
"             ...  .  .  .. ..  .. .. .. .. ...       ....  ....   ....   ....   ......    .     ",
"           ..  .  .  .  .. ..  .. .. .. .. ...        ....   ....   ....   ...    ...   .       ",
"          ...  .  .  .  ..  .  .. .. .. .. ...          ....   ....   ...    ...     ...        ",
"         .  .  .  .  .  ..  .  .. .. .. ..  ..       ..   ....   ....   ...     ..     .        ",
"            .  .  .  .  ..  .  .. .. .. ..  ..       ....   ....   ...    ...     ..     ..     ",
"            .  .  .  .   .  .  .. .. .. ..  ..         ....   ....   ...    ...     .           ",
"            .  .  .  .   .  .  .. .. ..  .  ..           ....   ...    ...     .      .         ",
"            .  .     .   .  .  .. .. ..  .  ..       ...   ....   ...    ...     .              ",
"            .  .         .  .  .. .. ..  .  ..        ....   ...    ...     ..     .            ",
"               .         .  .  .. ..  .  .  ..          ...    ...    ...     .                 ",
"                         .  .  .. ..  .  .  ..       ..   ...    ...     .                      ",
"                         .  .  .. ..  .  .  ..        ..    ...    ...     .                    ",
"                         .  .   .  .  .  .  ..         ...    ...     .                         ",
"                            .   .  .  .  .  ..           ...    ...     .                       ",
"                                .  .  .  .  ..       ..    ...     .      .                     ",
"                                .  .  .  .  ..        ...    ..      .                          ",
"                                   .  .  .   .          ...    ..                               ",
"                                   .  .  .   .            ..      .                             ",
"                                   .  .  .   .        ..     .                                  ",
"                                   .         .         ..      .                                ",
"                                   .  .      .           ..                                     ",
"                                      .                     .                                   ",
"                                                      ..                                        ",
"                                                         .                                      ",
"                                                                                                ",
"                                                                                                ",
"                                                                                                ",
"                                                                                                ",
"                                                                                                ",
"                                                                                                "
};
